<svg xmlns="http://www.w3.org/2000/svg" viewBox="0 0 200 200" aria-hidden="true">
  <defs>
    <linearGradient id="rl-arrow" x1="0%" y1="0%" x2="100%" y2="50%">
      <stop offset="0%" stop-color="#c084fc"/>
      <stop offset="55%" stop-color="#8b5cf6"/>
      <stop offset="100%" stop-color="#22d3ee"/>
    </linearGradient>
  </defs>
  <g fill="url(#rl-arrow)">
    <circle cx="100" cy="20" r="7"/>
    <circle cx="80" cy="40" r="7"/><circle cx="100" cy="40" r="7"/><circle cx="120" cy="40" r="7"/>
    <circle cx="60" cy="60" r="7"/><circle cx="80" cy="60" r="7"/><circle cx="100" cy="60" r="7"/><circle cx="120" cy="60" r="7"/><circle cx="140" cy="60" r="7"/>
    <circle cx="40" cy="80" r="7"/><circle cx="60" cy="80" r="7"/><circle cx="80" cy="80" r="7"/><circle cx="100" cy="80" r="7"/><circle cx="120" cy="80" r="7"/><circle cx="140" cy="80" r="7"/><circle cx="160" cy="80" r="7"/>
    <circle cx="60" cy="100" r="7"/><circle cx="80" cy="100" r="7"/><circle cx="100" cy="100" r="7"/><circle cx="120" cy="100" r="7"/><circle cx="140" cy="100" r="7"/><circle cx="160" cy="100" r="7"/><circle cx="182" cy="100" r="9"/>
    <circle cx="40" cy="120" r="7"/><circle cx="60" cy="120" r="7"/><circle cx="80" cy="120" r="7"/><circle cx="100" cy="120" r="7"/><circle cx="120" cy="120" r="7"/><circle cx="140" cy="120" r="7"/><circle cx="160" cy="120" r="7"/>
    <circle cx="60" cy="140" r="7"/><circle cx="80" cy="140" r="7"/><circle cx="100" cy="140" r="7"/><circle cx="120" cy="140" r="7"/><circle cx="140" cy="140" r="7"/>
    <circle cx="80" cy="160" r="7"/><circle cx="100" cy="160" r="7"/><circle cx="120" cy="160" r="7"/>
    <circle cx="100" cy="180" r="7"/>
  </g>
  <g fill="#a78bfa" opacity="0.55">
    <circle cx="20" cy="70" r="2.5"/>
    <circle cx="10" cy="100" r="3"/>
    <circle cx="20" cy="130" r="2.5"/>
    <circle cx="32" cy="100" r="2"/>
  </g>
</svg>
